<svg xmlns="http://www.w3.org/2000/svg" xmlns:xlink="http://www.w3.org/1999/xlink" width="1000" height="590" viewBox="0 0 1000 590">
    <title>Raccoon Studio</title>
    <path fill="#fff" fill-rule="evenodd"  d="M0 0v193.777L182.974 85.109 0 0zm817.026 85.109L1000 193.803V.025l-182.974 85.11v-.026zM500 460.424v-.102.051-.05.101l-109.282 64.763L500 589.949V590v-.051.051-.076l109.23-64.763L500 460.4v.025zm-.641-228.274l-219.23-101.733L.384 296.453l303.743 180.264 195.205-115.935 195.334 115.935L998.41 296.453 718.667 130.392 499.359 232.15zM335.692 337.835L302.36 318.15l-33.333 19.684-38.923-22.947 72.18-42.759 72.179 42.759-38.77 22.947zm393.846 0l-33.333-19.684-33.333 19.684-38.923-22.947 72.18-42.759 72.179 42.759-38.77 22.947z"/>
</svg>
